<svg xmlns="http://www.w3.org/2000/svg" width="800" height="600"><g stroke="#000"><path d="M161.284 487.228c1.558 3.421 9.492 5.142 27.695 4.125 3.428 10.688 9.148 13.353 14.731 16.499 8.618 5.684 16.941 12.4 27.695 10.607 54.623 12.893 80.345-1.607 106.655-18.856l158.51-95.459-10.607-21.213c-76.475-1.917-137.946-28.838-232.167-1.179-38.82 26.554-75.997 55.189-98.406 102.53z" fill="#d45500"/><path d="M155.833 481.667c74.697-102.103 85.398-79.415 120-103.333l67.5 25c3.511 41.756-13.2 73.4-26.667 106.667-26.743 3.458 3.625 17.624-86.667 9.167-3.272-1.269-12.547 4.831-44.167-28.333-12.069-.47-26.341 1.815-30-9.167z" fill="#f60"/></g><g><path d="M342.358 519.272c-10.595-30.264 12.964-77.782 27.106-95.459 14.142-17.678 37.712-40.069 37.712-40.069-20.322 4.146-36.713 1.74-61.283 12.964l-50.676 31.82c-10.218.385-18.445 4.75-32.998-3.536-11.315-12.754-14.485-24.151-16.499-35.355-5.137-12.029-11.072-15.351-17.678-20.035-10.214-2.357-20.428-.786-30.641 4.714l-22.392-12.964 2.357-11.785c6.256-2.74 8.159-4.029 18.856-8.25l-3.536-35.355c29.664-6.527 48.158.35 70.711 2.357 5.107 8.483 10.214 14.678 15.321 20.035 20.572-3.725 46.858-15.319 63.05-17.088 27.575-10.594 51.021-5.262 77.192-8.839 8.683-1.296 20.199-1.648 20.035-5.893-.876-23.026 1.178-32.213 3.536-53.622 7.629-12.549 14.507-36.466 28.874-40.659-7.28-12.292-14.643-24.596-11.196-35.355 20.558-5.106 30.077-2.269 43.016 1.768 20.828 6.705 33.124 12.309 43.605 17.678l45.373-5.303c7.201-20.963 14.807-38.68 23.57-47.14 21.761 17.198 21.447 26.369 27.106 37.712l11.785 73.068 4.714 11.785 31.82 12.964-16.499 32.998v21.213c-8.642 9.57-17.285 12.428-25.927 31.82l-29.463 50.676c17.274 16.097 16.128 19.98 21.802 25.927l12.374 38.891c10.797 12.448 20.619 20.504 28.284 18.856-.569 26.645-15.76 31.357-28.284 40.069-17.324 3.339-28.293-10.366-44.194-14.142-23.247-20.115-24.651-33.676-33.588-49.497-28.725 27.273-58.885 35.887-88.388 53.033-24.89 12.097-49.718 23.885-73.068 28.284 1.752-21.531 14.854-26.038 22.392-38.891 5.26-8.975-5.291-13.998-11.785-20.035-27.499 19.744-54.997 33.239-82.496 30.641z" stroke="#000" fill="none"/><path d="M415.203 545.506c0-1.966 1.845-8.089 3.526-11.7 2.029-4.359 3.526-6.436 9.453-13.115 5.373-6.055 8.915-10.823 9.964-13.416 1.055-2.607.484-6.206-1.42-8.954-1.302-1.879-8.975-8.818-11.294-10.213-.37-.223-3.552 1.543-7.071 3.924-24.631 16.662-45.354 25.174-64.842 26.633-2.976.223-6.604.226-8.062.008l-2.651-.398-.879-3.947c-2.599-11.675-1.41-24.97 3.719-41.593 5.555-18.004 16.527-38.763 27.443-51.922 5.525-6.66 24.323-26.622 30.584-32.477 2.895-2.707 5.113-5.072 4.93-5.256-.183-.183-2.685.066-5.558.555-2.873.489-9.997 1.436-15.831 2.106-12.673 1.455-15.856 1.982-23.505 3.891-12.337 3.078-16.285 5.093-43.5 22.202l-25.324 15.92-8.047.837c-9.349.972-13.251.536-19.669-2.195-4.566-1.943-5.612-2.964-10.458-10.203-4.34-6.484-6.74-12.187-8.962-21.293-2.675-10.964-7.413-17.85-16.633-24.173l-3.437-2.357-7.147-.199c-8.017-.223-12.611.581-19.25 3.37l-3.998 1.68-10.703-6.185c-9.356-5.407-10.665-6.342-10.398-7.434.168-.687.638-3.075 1.045-5.307l.74-4.058 4.745-2.177c2.61-1.197 6.94-3.073 9.624-4.167l4.879-1.99-.321-2.381c-1.151-8.55-3.213-32.404-2.83-32.752.255-.232 3.514-.904 7.241-1.492 11.307-1.785 23.737-1.448 41.837 1.134 8.264 1.179 16.095 2.285 17.401 2.458 2.203.292 2.599.653 5.459 4.977 3.641 5.505 11.808 15.341 12.733 15.334 1.833-.013 16.167-3.97 31.602-8.723 17.32-5.333 24.469-7.299 29.394-8.084 1.431-.228 4.461-1.046 6.732-1.819 11.13-3.786 21.758-5.036 51.949-6.114 14.927-.533 30.936-2.112 36.446-3.596 1.257-.338 2.91-1.24 3.673-2.003 1.37-1.37 1.388-1.547 1.395-13.954.006-9.991.35-15.525 1.681-27.003l1.674-14.437 6.591-13.066c8.831-17.508 13.357-23.534 19.915-26.519 1.255-.571 2.381-1.102 2.504-1.18.122-.078-1.258-2.738-3.068-5.91-6.897-12.091-9.675-20.125-8.954-25.899.374-2.99.481-3.146 2.559-3.697 1.193-.316 3.892-.83 5.999-1.142 14.122-2.09 20.413-1.219 40.343 5.583 11.937 4.074 21.06 7.714 30.294 12.088l7.292 3.454 23.054-2.693c12.68-1.481 23.077-2.737 23.104-2.792.028-.054.936-2.618 2.019-5.697 6.228-17.703 14.793-34.838 19.737-39.483l1.424-1.338 4.128 3.66c9.415 8.347 13.733 14.29 18.618 25.621l3.281 7.611 5.886 36.459c5.574 34.525 6.013 36.781 8.283 42.528l2.397 6.07 14.888 6.052c8.189 3.329 15.208 6.25 15.599 6.491.503.311-1.631 5.12-7.289 16.43l-8 15.991v10.378c0 12.102.728 10.482-8.461 18.829-7.121 6.468-11.013 11.523-15.855 20.593-2.076 3.889-9.917 17.623-17.424 30.52-7.507 12.897-13.65 23.613-13.65 23.815 0 .202 2.868 3.306 6.374 6.898 5.392 5.525 10.451 12.003 14.934 19.121.538.854 3.68 10.034 6.982 20.399l6.004 18.846 3.845 4.135c8.533 9.177 15.756 14.185 21.427 14.857l3.029.359-.395 3.593c-1.485 13.51-6.49 20.899-20.273 29.927-6.968 4.564-7.637 4.871-11.101 5.092-5.829.371-10.97-1.24-22.511-7.055-5.688-2.866-11.962-5.75-13.943-6.409-3.209-1.068-4.276-1.888-9.779-7.518-9.967-10.196-12.806-14.387-20.464-30.213-2.893-5.98-5.653-11.388-6.131-12.02-.836-1.102-1.032-1-4.918 2.565-8.203 7.524-21.311 16.599-34.983 24.223-3.079 1.717-13.023 6.796-22.097 11.288-9.075 4.492-22.333 11.162-29.463 14.823-25.669 13.181-49.779 22.881-65.849 26.494-3.695.831-3.977.823-3.977-.102z" fill="#f60"/><path d="M682.47 298.632l-30.641 1.768c-7.66-5.303-2.357-35.355-2.357-35.355l26.517-6.482s12.964 8.25 17.678 11.196c4.714 2.946-11.196 28.874-11.196 28.874z" fill="#500" stroke="#000"/><path d="M526.997 249.006l-1.459 23.357 58.62 2.14 14.913-24.071-64.385-1.427z" fill="#241c1c" stroke="#000" stroke-width="1.405"/><path d="M536.055 254.675l-1.576 14.219 45.694 1.094 7.878-12.032z" fill="#fff" stroke="#000" stroke-width="2.228"/><path d="M555.942 339.722c2.814 1.777 5.738 9.862 25.207 17.577 45.648-5.538 67.697-2.957 62.289.934l5.434-2.184 2.845-5.893-27.552-2.012-40.802 2.012c-7.288.265-15.489-3.635-22.392-15.91-10.008 4.602-3.886 3.828-5.03 5.476z" fill="#241c1c" stroke="#000"/><path d="M441.352 499.237c1.179-4.714 2.946-27.695 5.893-47.14 2.946-19.445 7.071-31.82 20.035-44.194 12.964-12.374 18.856-15.321 37.712-19.445 18.856-4.125 67.531 5.237 73.657 7.66 10.124 4.004 33.666 16.372 31.82 15.91 0 0-37.123 61.283-39.48 61.283-2.357 0-102.53 53.622-102.53 53.622-.977 4.884-29.445-15.41-26.517-21.802 1.77-3.863-.589-5.893-.589-5.893z" fill="#a40" stroke="#000"/><path d="M241.595 332.773a15.321 15.615 0 1 1-30.641 0 15.321 15.615 0 1 1 30.641 0z" fill="#a40"/><path d="M289.914 380.208a22.981 23.57 0 1 1-.869-6.42" fill="#a40"/><path d="M205.65 362.235a9.133 9.133 0 1 1-.345-2.488" fill="#a40"/></g></svg>